<?xml version="1.0" encoding="iso-8859-1"?>
<!-- Uploaded to: SVG Repo, www.svgrepo.com, Generator: SVG Repo Mixer Tools -->
<svg height="800px" width="800px" version="1.1" id="Layer_1" xmlns="http://www.w3.org/2000/svg" xmlns:xlink="http://www.w3.org/1999/xlink" 
	 viewBox="0 0 512 512" xml:space="preserve">
<polygon style="fill:#FF5023;" points="403.911,420.978 170.667,420.978 170.667,125.156 403.911,125.156 403.911,159.289 
	204.8,159.289 204.8,386.844 403.911,386.844 "/>
<polygon style="fill:#FFAD41;" points="401.667,73.956 378.912,39.822 273.067,39.822 273.067,233.244 512,233.244 512,73.956 "/>
<polygon style="fill:#FF9811;" points="401.667,73.956 403.911,233.244 512,233.244 512,73.956 "/>
<polygon style="fill:#FFAD41;" points="401.667,312.889 378.912,278.756 273.067,278.756 273.067,472.178 512,472.178 512,312.889 
	"/>
<polygon style="fill:#FF9811;" points="401.667,312.889 403.911,472.178 512,472.178 512,312.889 "/>
<polygon style="fill:#93C7EF;" points="128.601,193.422 105.845,159.289 0,159.289 0,352.711 238.933,352.711 238.933,193.422 "/>
<polygon style="fill:#78B9EB;" points="128.601,193.422 130.844,352.711 238.933,352.711 238.933,193.422 "/>
</svg>