<svg version="1.1" viewBox="0.0 0.0 300.0 170.0" fill="none" stroke="none" stroke-linecap="square" stroke-miterlimit="10" xmlns:xlink="http://www.w3.org/1999/xlink" xmlns="http://www.w3.org/2000/svg"><clipPath id="g2c285d2dd50_1_0.0"><path d="m0 0l300.0 0l0 170.0l-300.0 0l0 -170.0z" clip-rule="nonzero"/></clipPath><g clip-path="url(#g2c285d2dd50_1_0.0)"><path fill="#ffffff" d="m0 0l300.0 0l0 170.0l-300.0 0z" fill-rule="evenodd"/><path fill="#263238" d="m-0.002624672 0.0131233595l300.0 0l0 169.98425l-300.0 0z" fill-rule="evenodd"/><path stroke="#000000" stroke-width="1.0" stroke-linejoin="round" stroke-linecap="butt" d="m-0.002624672 0.0131233595l300.0 0l0 169.98425l-300.0 0z" fill-rule="evenodd"/><path fill="#ffffff" d="m65.7696 78.2065l4.375 0l0 1.71875l-6.5 0l0 -12.96875l2.125 0l0 11.25zm10.611496 1.890625q-1.453125 0 -2.640625 -0.65625q-1.171875 -0.671875 -1.84375 -1.875q-0.671875 -1.203125 -0.671875 -2.796875q0 -1.5625 0.6875 -2.765625q0.703125 -1.21875 1.890625 -1.875q1.203125 -0.65625 2.671875 -0.65625q1.46875 0 2.65625 0.65625q1.203125 0.65625 1.890625 1.875q0.6875 1.203125 0.6875 2.765625q0 1.578125 -0.703125 2.796875q-0.703125 1.203125 -1.9375 1.875q-1.21875 0.65625 -2.6875 0.65625zm0 -1.84375q0.8125 0 1.53125 -0.390625q0.71875 -0.40625 1.171875 -1.1875q0.453125 -0.78125 0.453125 -1.90625q0 -1.109375 -0.4375 -1.875q-0.421875 -0.78125 -1.140625 -1.171875q-0.703125 -0.390625 -1.53125 -0.390625q-0.8125 0 -1.515625 0.390625q-0.703125 0.390625 -1.109375 1.171875q-0.40625 0.765625 -0.40625 1.875q0 1.671875 0.84375 2.578125q0.859375 0.90625 2.140625 0.90625zm9.57457 -7.109375q0.46875 -0.796875 1.234375 -1.234375q0.78125 -0.4375 1.84375 -0.4375l0 2.203125l-0.546875 0q-1.25 0 -1.890625 0.640625q-0.640625 0.625 -0.640625 2.203125l0 5.40625l-2.125 0l0 -10.28125l2.125 0l0 1.5zm14.460876 3.390625q0 0.578125 -0.078125 1.046875l-7.859375 0q0.09375 1.234375 0.90625 1.984375q0.828125 0.734375 2.03125 0.734375q1.703125 0 2.421875 -1.4375l2.296875 0q-0.46875 1.421875 -1.703125 2.328125q-1.21875 0.90625 -3.015625 0.90625q-1.484375 0 -2.65625 -0.65625q-1.15625 -0.671875 -1.828125 -1.875q-0.65625 -1.203125 -0.65625 -2.796875q0 -1.578125 0.640625 -2.78125q0.65625 -1.203125 1.8125 -1.859375q1.171875 -0.65625 2.6875 -0.65625q1.453125 0 2.578125 0.640625q1.140625 0.640625 1.78125 1.78125q0.640625 1.140625 0.640625 2.640625zm-2.234375 -0.671875q-0.015625 -1.171875 -0.84375 -1.875q-0.8125 -0.71875 -2.015625 -0.71875q-1.109375 0 -1.890625 0.703125q-0.78125 0.703125 -0.9375 1.890625l5.6875 0zm16.76091 -4.390625q1.21875 0 2.171875 0.515625q0.96875 0.5 1.515625 1.484375q0.546875 0.984375 0.546875 2.390625l0 6.0625l-2.109375 0l0 -5.75q0 -1.375 -0.6875 -2.109375q-0.6875 -0.734375 -1.890625 -0.734375q-1.1875 0 -1.890625 0.734375q-0.703125 0.734375 -0.703125 2.109375l0 5.75l-2.109375 0l0 -5.75q0 -1.375 -0.6875 -2.109375q-0.6875 -0.734375 -1.875 -0.734375q-1.203125 0 -1.90625 0.734375q-0.6875 0.734375 -0.6875 2.109375l0 5.75l-2.125 0l0 -10.28125l2.125 0l0 1.171875q0.515625 -0.625 1.3125 -0.984375q0.8125 -0.359375 1.71875 -0.359375q1.234375 0 2.203125 0.53125q0.96875 0.515625 1.5 1.515625q0.46875 -0.9375 1.453125 -1.484375q0.984375 -0.5625 2.125 -0.5625zm12.875107 -1.1875q-0.578125 0 -0.96875 -0.390625q-0.390625 -0.390625 -0.390625 -0.96875q0 -0.578125 0.390625 -0.96875q0.390625 -0.390625 0.96875 -0.390625q0.5624924 0 0.9531174 0.390625q0.390625 0.390625 0.390625 0.96875q0 0.578125 -0.390625 0.96875q-0.390625 0.390625 -0.9531174 0.390625zm1.0468674 1.359375l0 10.28125l-2.1249924 0l0 -10.28125l2.1249924 0zm4.9252625 1.515625q0.53125 -0.71875 1.46875 -1.203125q0.9375 -0.484375 2.109375 -0.484375q1.34375 0 2.453125 0.671875q1.109375 0.65625 1.734375 1.859375q0.640625 1.1875 0.640625 2.734375q0 1.546875 -0.640625 2.78125q-0.625 1.21875 -1.734375 1.90625q-1.109375 0.671875 -2.453125 0.671875q-1.171875 0 -2.09375 -0.46875q-0.90625 -0.484375 -1.484375 -1.203125l0 6.390625l-2.125 0l0 -15.171875l2.125 0l0 1.515625zm6.25 3.578125q0 -1.0625 -0.4375 -1.828125q-0.4375 -0.78125 -1.15625 -1.171875q-0.71875 -0.40625 -1.546875 -0.40625q-0.796875 0 -1.515625 0.40625q-0.71875 0.40625 -1.15625 1.1875q-0.4375 0.78125 -0.4375 1.84375q0 1.078125 0.4375 1.875q0.4375 0.78125 1.15625 1.203125q0.71875 0.40625 1.515625 0.40625q0.828125 0 1.546875 -0.421875q0.71875 -0.421875 1.15625 -1.21875q0.4375 -0.8125 0.4375 -1.875zm7.992676 5.359375q-1.203125 0 -2.171875 -0.4375q-0.953125 -0.4375 -1.515625 -1.1875q-0.5625 -0.765625 -0.59375 -1.703125l2.203125 0q0.046875 0.65625 0.609375 1.09375q0.578125 0.4375 1.4375 0.4375q0.890625 0 1.390625 -0.34375q0.5 -0.34375 0.5 -0.890625q0 -0.578125 -0.5625 -0.859375q-0.546875 -0.28125 -1.734375 -0.609375q-1.15625 -0.3125 -1.890625 -0.609375q-0.71875 -0.3125 -1.265625 -0.921875q-0.53125 -0.609375 -0.53125 -1.625q0 -0.8125 0.484375 -1.484375q0.5 -0.6875 1.390625 -1.078125q0.90625 -0.40625 2.09375 -0.40625q1.75 0 2.8125 0.890625q1.078125 0.890625 1.15625 2.421875l-2.125 0q-0.0625 -0.6875 -0.5625 -1.09375q-0.5 -0.421875 -1.359375 -0.421875q-0.84375 0 -1.296875 0.328125q-0.4375 0.3125 -0.4375 0.828125q0 0.40625 0.296875 0.6875q0.296875 0.28125 0.71875 0.4375q0.4375 0.15625 1.28125 0.40625q1.109375 0.296875 1.828125 0.609375q0.71875 0.296875 1.234375 0.90625q0.53125 0.59375 0.546875 1.578125q0 0.875 -0.484375 1.578125q-0.484375 0.6875 -1.375 1.078125q-0.875 0.390625 -2.078125 0.390625zm15.540558 -10.453125l0 10.28125l-2.125 0l0 -1.21875q-0.5 0.640625 -1.3125 1.015625q-0.8125 0.359375 -1.71875 0.359375q-1.21875 0 -2.1875 -0.5q-0.953125 -0.515625 -1.5 -1.5q-0.546875 -0.984375 -0.546875 -2.390625l0 -6.046875l2.109375 0l0 5.734375q0 1.375 0.6875 2.109375q0.6875 0.734375 1.875 0.734375q1.203125 0 1.890625 -0.734375q0.703125 -0.734375 0.703125 -2.109375l0 -5.734375l2.125 0zm15.248535 -0.171875q1.21875 0 2.171875 0.515625q0.96875 0.5 1.515625 1.484375q0.546875 0.984375 0.546875 2.390625l0 6.0625l-2.109375 0l0 -5.75q0 -1.375 -0.6875 -2.109375q-0.6875 -0.734375 -1.890625 -0.734375q-1.1875 0 -1.890625 0.734375q-0.703125 0.734375 -0.703125 2.109375l0 5.75l-2.109375 0l0 -5.75q0 -1.375 -0.6875 -2.109375q-0.6875 -0.734375 -1.875 -0.734375q-1.203125 0 -1.90625 0.734375q-0.6875 0.734375 -0.6875 2.109375l0 5.75l-2.125 0l0 -10.28125l2.125 0l0 1.171875q0.515625 -0.625 1.3125 -0.984375q0.8125 -0.359375 1.71875 -0.359375q1.234375 0 2.203125 0.53125q0.96875 0.515625 1.5 1.515625q0.46875 -0.9375 1.453125 -1.484375q0.984375 -0.5625 2.125 -0.5625zm11.078247 5.265625q0 -1.546875 0.640625 -2.734375q0.65625 -1.203125 1.765625 -1.859375q1.109375 -0.671875 2.46875 -0.671875q1.0 0 1.984375 0.4375q0.984375 0.4375 1.5625 1.171875l0 -4.96875l2.140625 0l0 13.8125l-2.140625 0l0 -1.546875q-0.53125 0.75 -1.453125 1.234375q-0.921875 0.484375 -2.109375 0.484375q-1.34375 0 -2.453125 -0.671875q-1.109375 -0.6875 -1.765625 -1.90625q-0.640625 -1.234375 -0.640625 -2.78125zm8.421875 0.03125q0 -1.0625 -0.4375 -1.84375q-0.4375 -0.78125 -1.15625 -1.1875q-0.703125 -0.40625 -1.53125 -0.40625q-0.8125 0 -1.53125 0.40625q-0.703125 0.390625 -1.140625 1.171875q-0.4375 0.765625 -0.4375 1.828125q0 1.0625 0.4375 1.875q0.4375 0.796875 1.15625 1.21875q0.71875 0.421875 1.515625 0.421875q0.828125 0 1.53125 -0.40625q0.71875 -0.421875 1.15625 -1.203125q0.4375 -0.796875 0.4375 -1.875zm9.398926 5.328125q-1.453125 0 -2.640625 -0.65625q-1.171875 -0.671875 -1.84375 -1.875q-0.671875 -1.203125 -0.671875 -2.796875q0 -1.5625 0.6875 -2.765625q0.703125 -1.21875 1.890625 -1.875q1.203125 -0.65625 2.671875 -0.65625q1.46875 0 2.65625 0.65625q1.203125 0.65625 1.890625 1.875q0.6875 1.203125 0.6875 2.765625q0 1.578125 -0.703125 2.796875q-0.703125 1.203125 -1.9375 1.875q-1.21875 0.65625 -2.6875 0.65625zm0 -1.84375q0.8125 0 1.53125 -0.390625q0.71875 -0.40625 1.171875 -1.1875q0.453125 -0.78125 0.453125 -1.90625q0 -1.109375 -0.4375 -1.875q-0.421875 -0.78125 -1.140625 -1.171875q-0.703125 -0.390625 -1.53125 -0.390625q-0.8125 0 -1.515625 0.390625q-0.703125 0.390625 -1.109375 1.171875q-0.40625 0.765625 -0.40625 1.875q0 1.671875 0.84375 2.578125q0.859375 0.90625 2.140625 0.90625zm9.574585 -12.140625l0 13.8125l-2.125 0l0 -13.8125l2.125 0zm7.253357 13.984375q-1.453125 0 -2.640625 -0.65625q-1.171875 -0.671875 -1.84375 -1.875q-0.671875 -1.203125 -0.671875 -2.796875q0 -1.5625 0.6875 -2.765625q0.703125 -1.21875 1.890625 -1.875q1.203125 -0.65625 2.671875 -0.65625q1.46875 0 2.65625 0.65625q1.203125 0.65625 1.890625 1.875q0.6875 1.203125 0.6875 2.765625q0 1.578125 -0.703125 2.796875q-0.703125 1.203125 -1.9375 1.875q-1.21875 0.65625 -2.6875 0.65625zm0 -1.84375q0.8125 0 1.53125 -0.390625q0.71875 -0.40625 1.171875 -1.1875q0.453125 -0.78125 0.453125 -1.90625q0 -1.109375 -0.4375 -1.875q-0.421875 -0.78125 -1.140625 -1.171875q-0.703125 -0.390625 -1.53125 -0.390625q-0.8125 0 -1.515625 0.390625q-0.703125 0.390625 -1.109375 1.171875q-0.40625 0.765625 -0.40625 1.875q0 1.671875 0.84375 2.578125q0.859375 0.90625 2.140625 0.90625zm9.574585 -7.109375q0.46875 -0.796875 1.234375 -1.234375q0.78125 -0.4375 1.84375 -0.4375l0 2.203125l-0.546875 0q-1.25 0 -1.890625 0.640625q-0.640625 0.625 -0.640625 2.203125l0 5.40625l-2.125 0l0 -10.28125l2.125 0l0 1.5z" fill-rule="nonzero"/><path fill="#ffffff" d="m88.38322 94.64088l1.265625 0l0 0.484375l-1.859375 0l0 -3.703125l0.59375 0l0 3.21875zm3.0375824 0.53125q-0.421875 0 -0.75 -0.1875q-0.328125 -0.1875 -0.53125 -0.53125q-0.1875 -0.34375 -0.1875 -0.796875q0 -0.453125 0.1875 -0.796875q0.203125 -0.34375 0.546875 -0.53125q0.34375 -0.1875 0.765625 -0.1875q0.421875 0 0.75 0.1875q0.34375 0.1875 0.546875 0.53125q0.203125 0.34375 0.203125 0.796875q0 0.453125 -0.203125 0.796875q-0.203125 0.34375 -0.5625 0.53125q-0.34375 0.1875 -0.765625 0.1875zm0 -0.53125q0.234375 0 0.4375 -0.109375q0.203125 -0.109375 0.328125 -0.328125q0.140625 -0.234375 0.140625 -0.546875q0 -0.328125 -0.125 -0.546875q-0.125 -0.21875 -0.328125 -0.328125q-0.203125 -0.109375 -0.4375 -0.109375q-0.234375 0 -0.4375 0.109375q-0.1875 0.109375 -0.3125 0.328125q-0.109375 0.21875 -0.109375 0.546875q0 0.46875 0.234375 0.734375q0.25 0.25 0.609375 0.25zm2.7275085 -2.03125q0.140625 -0.21875 0.359375 -0.34375q0.21875 -0.125 0.53125 -0.125l0 0.625l-0.15625 0q-0.359375 0 -0.546875 0.1875q-0.1875 0.171875 -0.1875 0.625l0 1.546875l-0.59375 0l0 -2.9375l0.59375 0l0 0.421875zm4.1397705 0.96875q0 0.171875 -0.03125 0.3125l-2.234375 0q0.03125 0.34375 0.265625 0.5625q0.234375 0.203125 0.5625 0.203125q0.5 0 0.703125 -0.40625l0.65625 0q-0.140625 0.40625 -0.5 0.671875q-0.34375 0.25 -0.859375 0.25q-0.421875 0 -0.75 -0.1875q-0.328125 -0.1875 -0.515625 -0.53125q-0.1875 -0.34375 -0.1875 -0.796875q0 -0.453125 0.171875 -0.796875q0.1875 -0.34375 0.515625 -0.53125q0.34375 -0.1875 0.765625 -0.1875q0.421875 0 0.75 0.1875q0.328125 0.171875 0.5 0.5q0.1875 0.328125 0.1875 0.75zm-0.640625 -0.1875q0 -0.328125 -0.234375 -0.53125q-0.234375 -0.203125 -0.578125 -0.203125q-0.3125 0 -0.546875 0.203125q-0.21875 0.1875 -0.265625 0.53125l1.625 0zm4.787491 -1.25q0.34375 0 0.609375 0.140625q0.28125 0.140625 0.4375 0.4375q0.15625 0.28125 0.15625 0.671875l0 1.734375l-0.59375 0l0 -1.640625q0 -0.390625 -0.203125 -0.59375q-0.1875 -0.21875 -0.53125 -0.21875q-0.34375 0 -0.546875 0.21875q-0.203125 0.203125 -0.203125 0.59375l0 1.640625l-0.59375 0l0 -1.640625q0 -0.390625 -0.203125 -0.59375q-0.1875 -0.21875 -0.53125 -0.21875q-0.34375 0 -0.546875 0.21875q-0.203125 0.203125 -0.203125 0.59375l0 1.640625l-0.59375 0l0 -2.9375l0.59375 0l0 0.34375q0.15625 -0.1875 0.375 -0.28125q0.234375 -0.109375 0.5 -0.109375q0.359375 0 0.625 0.15625q0.28125 0.140625 0.4375 0.421875q0.125 -0.265625 0.40625 -0.421875q0.28125 -0.15625 0.609375 -0.15625zm3.6713104 -0.34375q-0.15625 0 -0.28125 -0.109375q-0.109375 -0.109375 -0.109375 -0.28125q0 -0.15625 0.109375 -0.265625q0.125 -0.125 0.28125 -0.125q0.171875 0 0.28125 0.125q0.109375 0.109375 0.109375 0.265625q0 0.171875 -0.109375 0.28125q-0.109375 0.109375 -0.28125 0.109375zm0.296875 0.390625l0 2.9375l-0.59375 0l0 -2.9375l0.59375 0zm1.4066467 0.4375q0.15625 -0.203125 0.421875 -0.34375q0.265625 -0.140625 0.609375 -0.140625q0.375 0 0.6875 0.1875q0.328125 0.1875 0.5 0.53125q0.1875 0.34375 0.1875 0.78125q0 0.453125 -0.1875 0.796875q-0.171875 0.34375 -0.5 0.546875q-0.3125 0.1875 -0.6875 0.1875q-0.34375 0 -0.609375 -0.125q-0.25 -0.140625 -0.421875 -0.34375l0 1.8125l-0.59375 0l0 -4.328125l0.59375 0l0 0.4375zm1.796875 1.015625q0 -0.296875 -0.125 -0.515625q-0.125 -0.234375 -0.34375 -0.34375q-0.203125 -0.109375 -0.4375 -0.109375q-0.21875 0 -0.4375 0.125q-0.203125 0.109375 -0.328125 0.328125q-0.125 0.21875 -0.125 0.53125q0 0.296875 0.125 0.53125q0.125 0.21875 0.328125 0.34375q0.21875 0.109375 0.4375 0.109375q0.234375 0 0.4375 -0.109375q0.21875 -0.125 0.34375 -0.34375q0.125 -0.234375 0.125 -0.546875zm2.284378 1.53125q-0.34375 0 -0.625 -0.125q-0.28125 -0.125 -0.4375 -0.34375q-0.15625 -0.21875 -0.171875 -0.484375l0.640625 0q0.015625 0.1875 0.171875 0.3125q0.15625 0.125 0.40625 0.125q0.25 0 0.390625 -0.09375q0.15625 -0.09375 0.15625 -0.25q0 -0.171875 -0.171875 -0.25q-0.15625 -0.078125 -0.484375 -0.171875q-0.34375 -0.09375 -0.546875 -0.171875q-0.203125 -0.09375 -0.359375 -0.265625q-0.15625 -0.171875 -0.15625 -0.46875q0 -0.234375 0.140625 -0.421875q0.140625 -0.203125 0.390625 -0.3125q0.265625 -0.109375 0.609375 -0.109375q0.5 0 0.796875 0.25q0.3125 0.25 0.328125 0.6875l-0.609375 0q-0.015625 -0.1875 -0.15625 -0.296875q-0.140625 -0.125 -0.390625 -0.125q-0.234375 0 -0.359375 0.09375q-0.125 0.078125 -0.125 0.234375q0 0.109375 0.078125 0.203125q0.09375 0.078125 0.203125 0.125q0.125 0.03125 0.375 0.109375q0.3125 0.078125 0.515625 0.171875q0.203125 0.09375 0.34375 0.265625q0.15625 0.15625 0.171875 0.4375q0 0.265625 -0.140625 0.46875q-0.140625 0.1875 -0.390625 0.296875q-0.25 0.109375 -0.59375 0.109375zm4.4389954 -2.984375l0 2.9375l-0.609375 0l0 -0.34375q-0.140625 0.171875 -0.375 0.28125q-0.234375 0.109375 -0.5 0.109375q-0.34375 0 -0.625 -0.140625q-0.265625 -0.15625 -0.421875 -0.4375q-0.15625 -0.28125 -0.15625 -0.671875l0 -1.734375l0.59375 0l0 1.640625q0 0.390625 0.203125 0.609375q0.203125 0.203125 0.53125 0.203125q0.34375 0 0.546875 -0.203125q0.203125 -0.21875 0.203125 -0.609375l0 -1.640625l0.609375 0zm4.3486176 -0.046875q0.34375 0 0.609375 0.140625q0.28125 0.140625 0.4375 0.4375q0.15625 0.28125 0.15625 0.671875l0 1.734375l-0.59375 0l0 -1.640625q0 -0.390625 -0.203125 -0.59375q-0.1875 -0.21875 -0.53125 -0.21875q-0.34375 0 -0.546875 0.21875q-0.203125 0.203125 -0.203125 0.59375l0 1.640625l-0.59375 0l0 -1.640625q0 -0.390625 -0.203125 -0.59375q-0.1875 -0.21875 -0.53125 -0.21875q-0.34375 0 -0.546875 0.21875q-0.203125 0.203125 -0.203125 0.59375l0 1.640625l-0.59375 0l0 -2.9375l0.59375 0l0 0.34375q0.15625 -0.1875 0.375 -0.28125q0.234375 -0.109375 0.5 -0.109375q0.359375 0 0.625 0.15625q0.28125 0.140625 0.4375 0.421875q0.125 -0.265625 0.40625 -0.421875q0.28125 -0.15625 0.609375 -0.15625zm3.1713104 1.5q0 -0.4375 0.171875 -0.78125q0.1875 -0.34375 0.5 -0.53125q0.328125 -0.1875 0.71875 -0.1875q0.28125 0 0.5625 0.125q0.28125 0.125 0.4375 0.328125l0 -1.40625l0.625 0l0 3.9375l-0.625 0l0 -0.4375q-0.140625 0.203125 -0.40625 0.34375q-0.265625 0.140625 -0.609375 0.140625q-0.375 0 -0.703125 -0.1875q-0.3125 -0.203125 -0.5 -0.546875q-0.171875 -0.34375 -0.171875 -0.796875zm2.390625 0.015625q0 -0.3125 -0.125 -0.53125q-0.125 -0.21875 -0.328125 -0.328125q-0.203125 -0.125 -0.4375 -0.125q-0.234375 0 -0.4375 0.109375q-0.1875 0.109375 -0.3125 0.34375q-0.125 0.21875 -0.125 0.515625q0 0.3125 0.125 0.546875q0.125 0.21875 0.328125 0.34375q0.203125 0.109375 0.421875 0.109375q0.234375 0 0.4375 -0.109375q0.203125 -0.125 0.328125 -0.34375q0.125 -0.234375 0.125 -0.53125zm2.6906357 1.515625q-0.421875 0 -0.75 -0.1875q-0.32813263 -0.1875 -0.5312576 -0.53125q-0.1875 -0.34375 -0.1875 -0.796875q0 -0.453125 0.1875 -0.796875q0.203125 -0.34375 0.5468826 -0.53125q0.34375 -0.1875 0.765625 -0.1875q0.421875 0 0.75 0.1875q0.34375 0.1875 0.546875 0.53125q0.203125 0.34375 0.203125 0.796875q0 0.453125 -0.203125 0.796875q-0.203125 0.34375 -0.5625 0.53125q-0.34375 0.1875 -0.765625 0.1875zm0 -0.53125q0.234375 0 0.4375 -0.109375q0.203125 -0.109375 0.328125 -0.328125q0.140625 -0.234375 0.140625 -0.546875q0 -0.328125 -0.125 -0.546875q-0.125 -0.21875 -0.328125 -0.328125q-0.203125 -0.109375 -0.4375 -0.109375q-0.234375 0 -0.4375 0.109375q-0.1875 0.109375 -0.3125 0.328125q-0.109375 0.21875 -0.109375 0.546875q0 0.46875 0.234375 0.734375q0.25 0.25 0.609375 0.25zm2.7275085 -3.453125l0 3.9375l-0.59375 0l0 -3.9375l0.59375 0zm2.0785217 3.984375q-0.421875 0 -0.75 -0.1875q-0.328125 -0.1875 -0.53125 -0.53125q-0.1875 -0.34375 -0.1875 -0.796875q0 -0.453125 0.1875 -0.796875q0.203125 -0.34375 0.546875 -0.53125q0.34375 -0.1875 0.765625 -0.1875q0.421875 0 0.75 0.1875q0.34375 0.1875 0.546875 0.53125q0.203125 0.34375 0.203125 0.796875q0 0.453125 -0.203125 0.796875q-0.203125 0.34375 -0.5625 0.53125q-0.34375 0.1875 -0.765625 0.1875zm0 -0.53125q0.234375 0 0.4375 -0.109375q0.203125 -0.109375 0.328125 -0.328125q0.140625 -0.234375 0.140625 -0.546875q0 -0.328125 -0.125 -0.546875q-0.125 -0.21875 -0.328125 -0.328125q-0.203125 -0.109375 -0.4375 -0.109375q-0.234375 0 -0.4375 0.109375q-0.1875 0.109375 -0.3125 0.328125q-0.109375 0.21875 -0.109375 0.546875q0 0.46875 0.234375 0.734375q0.25 0.25 0.609375 0.25zm2.7275085 -2.03125q0.140625 -0.21875 0.359375 -0.34375q0.21875 -0.125 0.53125 -0.125l0 0.625l-0.15625 0q-0.359375 0 -0.546875 0.1875q-0.1875 0.171875 -0.1875 0.625l0 1.546875l-0.59375 0l0 -2.9375l0.59375 0l0 0.421875zm3.9000854 2.5625q-0.34375 0 -0.625 -0.125q-0.28125 -0.125 -0.4375 -0.34375q-0.15625 -0.21875 -0.171875 -0.484375l0.640625 0q0.015625 0.1875 0.171875 0.3125q0.15625 0.125 0.40625 0.125q0.25 0 0.390625 -0.09375q0.15625 -0.09375 0.15625 -0.25q0 -0.171875 -0.171875 -0.25q-0.15625 -0.078125 -0.484375 -0.171875q-0.34375 -0.09375 -0.546875 -0.171875q-0.203125 -0.09375 -0.359375 -0.265625q-0.15625 -0.171875 -0.15625 -0.46875q0 -0.234375 0.140625 -0.421875q0.140625 -0.203125 0.390625 -0.3125q0.265625 -0.109375 0.609375 -0.109375q0.5 0 0.796875 0.25q0.3125 0.25 0.328125 0.6875l-0.609375 0q-0.015625 -0.1875 -0.15625 -0.296875q-0.140625 -0.125 -0.390625 -0.125q-0.234375 0 -0.359375 0.09375q-0.125 0.078125 -0.125 0.234375q0 0.109375 0.078125 0.203125q0.09375 0.078125 0.203125 0.125q0.125 0.03125 0.375 0.109375q0.3125 0.078125 0.515625 0.171875q0.203125 0.09375 0.34375 0.265625q0.15625 0.15625 0.171875 0.4375q0 0.265625 -0.140625 0.46875q-0.140625 0.1875 -0.390625 0.296875q-0.25 0.109375 -0.59375 0.109375zm2.0796204 -3.375q-0.15625 0 -0.28125 -0.109375q-0.109375 -0.109375 -0.109375 -0.28125q0 -0.15625 0.109375 -0.265625q0.125 -0.125 0.28125 -0.125q0.171875 0 0.28125 0.125q0.109375 0.109375 0.109375 0.265625q0 0.171875 -0.109375 0.28125q-0.109375 0.109375 -0.28125 0.109375zm0.296875 0.390625l0 2.9375l-0.59375 0l0 -2.9375l0.59375 0zm1.5160217 0.5l0 1.625q0 0.15625 0.078125 0.234375q0.078125 0.078125 0.265625 0.078125l0.375 0l0 0.5l-0.484375 0q-0.40625 0 -0.625 -0.1875q-0.21875 -0.203125 -0.21875 -0.625l0 -1.625l-0.34375 0l0 -0.5l0.34375 0l0 -0.734375l0.609375 0l0 0.734375l0.71875 0l0 0.5l-0.71875 0zm2.4611816 0.953125q0 -0.4375 0.171875 -0.78125q0.1875 -0.34375 0.5 -0.53125q0.328125 -0.1875 0.703125 -0.1875q0.34375 0 0.609375 0.140625q0.265625 0.125 0.40625 0.328125l0 -0.421875l0.625 0l0 2.9375l-0.625 0l0 -0.4375q-0.140625 0.203125 -0.421875 0.34375q-0.265625 0.140625 -0.59375 0.140625q-0.390625 0 -0.703125 -0.1875q-0.3125 -0.203125 -0.5 -0.546875q-0.171875 -0.34375 -0.171875 -0.796875zm2.390625 0.015625q0 -0.3125 -0.125 -0.53125q-0.125 -0.21875 -0.328125 -0.328125q-0.203125 -0.125 -0.4375 -0.125q-0.234375 0 -0.4375 0.109375q-0.1875 0.109375 -0.3125 0.34375q-0.125 0.21875 -0.125 0.515625q0 0.3125 0.125 0.546875q0.125 0.21875 0.328125 0.34375q0.203125 0.109375 0.421875 0.109375q0.234375 0 0.4375 -0.109375q0.203125 -0.125 0.328125 -0.34375q0.125 -0.234375 0.125 -0.53125zm4.971863 -1.515625q0.34375 0 0.609375 0.140625q0.28125 0.140625 0.4375 0.4375q0.15625 0.28125 0.15625 0.671875l0 1.734375l-0.59375 0l0 -1.640625q0 -0.390625 -0.203125 -0.59375q-0.1875 -0.21875 -0.53125 -0.21875q-0.34375 0 -0.546875 0.21875q-0.203125 0.203125 -0.203125 0.59375l0 1.640625l-0.59375 0l0 -1.640625q0 -0.390625 -0.203125 -0.59375q-0.1875 -0.21875 -0.53125 -0.21875q-0.34375 0 -0.546875 0.21875q-0.203125 0.203125 -0.203125 0.59375l0 1.640625l-0.59375 0l0 -2.9375l0.59375 0l0 0.34375q0.15625 -0.1875 0.375 -0.28125q0.234375 -0.109375 0.5 -0.109375q0.359375 0 0.625 0.15625q0.28125 0.140625 0.4375 0.421875q0.125 -0.265625 0.40625 -0.421875q0.28125 -0.15625 0.609375 -0.15625zm4.676605 1.4375q0 0.171875 -0.03125 0.3125l-2.234375 0q0.03125 0.34375 0.265625 0.5625q0.234375 0.203125 0.5625 0.203125q0.5 0 0.703125 -0.40625l0.65625 0q-0.140625 0.40625 -0.5 0.671875q-0.34375 0.25 -0.859375 0.25q-0.421875 0 -0.75 -0.1875q-0.328125 -0.1875 -0.515625 -0.53125q-0.1875 -0.34375 -0.1875 -0.796875q0 -0.453125 0.171875 -0.796875q0.1875 -0.34375 0.515625 -0.53125q0.34375 -0.1875 0.765625 -0.1875q0.421875 0 0.75 0.1875q0.328125 0.171875 0.5 0.5q0.1875 0.328125 0.1875 0.75zm-0.640625 -0.1875q0 -0.328125 -0.234375 -0.53125q-0.234375 -0.203125 -0.578125 -0.203125q-0.3125 0 -0.546875 0.203125q-0.21875 0.1875 -0.265625 0.53125l1.625 0zm1.9437561 -0.703125l0 1.625q0 0.15625 0.078125 0.234375q0.078125 0.078125 0.265625 0.078125l0.375 0l0 0.5l-0.484375 0q-0.40625 0 -0.625 -0.1875q-0.21875 -0.203125 -0.21875 -0.625l0 -1.625l-0.34375 0l0 -0.5l0.34375 0l0 -0.734375l0.609375 0l0 0.734375l0.71875 0l0 0.5l-0.71875 0zm2.4611511 0.96875q0 -0.453125 0.171875 -0.796875q0.1875 -0.34375 0.515625 -0.53125q0.328125 -0.1875 0.75 -0.1875q0.53125 0 0.875 0.25q0.34375 0.25 0.46875 0.71875l-0.65625 0q-0.078125 -0.21875 -0.25 -0.328125q-0.171875 -0.125 -0.4375 -0.125q-0.375 0 -0.59375 0.265625q-0.21875 0.265625 -0.21875 0.734375q0 0.46875 0.21875 0.734375q0.21875 0.265625 0.59375 0.265625q0.515625 0 0.6875 -0.453125l0.65625 0q-0.125 0.4375 -0.484375 0.703125q-0.34375 0.265625 -0.859375 0.265625q-0.421875 0 -0.75 -0.1875q-0.328125 -0.1875 -0.515625 -0.53125q-0.171875 -0.34375 -0.171875 -0.796875zm4.66568 1.515625q-0.421875 0 -0.75 -0.1875q-0.328125 -0.1875 -0.53125 -0.53125q-0.1875 -0.34375 -0.1875 -0.796875q0 -0.453125 0.1875 -0.796875q0.203125 -0.34375 0.546875 -0.53125q0.34375 -0.1875 0.765625 -0.1875q0.421875 0 0.75 0.1875q0.34375 0.1875 0.546875 0.53125q0.203125 0.34375 0.203125 0.796875q0 0.453125 -0.203125 0.796875q-0.203125 0.34375 -0.5625 0.53125q-0.34375 0.1875 -0.765625 0.1875zm0 -0.53125q0.234375 0 0.4375 -0.109375q0.203125 -0.109375 0.328125 -0.328125q0.140625 -0.234375 0.140625 -0.546875q0 -0.328125 -0.125 -0.546875q-0.125 -0.21875 -0.328125 -0.328125q-0.203125 -0.109375 -0.4375 -0.109375q-0.234375 0 -0.4375 0.109375q-0.1875 0.109375 -0.3125 0.328125q-0.109375 0.21875 -0.109375 0.546875q0 0.46875 0.234375 0.734375q0.25 0.25 0.609375 0.25zm3.6025085 -2.5q0.359375 0 0.625 0.140625q0.28125 0.140625 0.421875 0.4375q0.15625 0.28125 0.15625 0.671875l0 1.734375l-0.59375 0l0 -1.640625q0 -0.390625 -0.203125 -0.59375q-0.1875 -0.21875 -0.53125 -0.21875q-0.34375 0 -0.546875 0.21875q-0.203125 0.203125 -0.203125 0.59375l0 1.640625l-0.59375 0l0 -2.9375l0.59375 0l0 0.34375q0.15625 -0.1875 0.390625 -0.28125q0.234375 -0.109375 0.484375 -0.109375zm3.0517273 3.03125q-0.34375 0 -0.625 -0.125q-0.28125 -0.125 -0.4375 -0.34375q-0.15625 -0.21875 -0.171875 -0.484375l0.640625 0q0.015625 0.1875 0.171875 0.3125q0.15625 0.125 0.40625 0.125q0.25 0 0.390625 -0.09375q0.15625 -0.09375 0.15625 -0.25q0 -0.171875 -0.171875 -0.25q-0.15625 -0.078125 -0.484375 -0.171875q-0.34375 -0.09375 -0.546875 -0.171875q-0.203125 -0.09375 -0.359375 -0.265625q-0.15625 -0.171875 -0.15625 -0.46875q0 -0.234375 0.140625 -0.421875q0.140625 -0.203125 0.390625 -0.3125q0.265625 -0.109375 0.609375 -0.109375q0.5 0 0.796875 0.25q0.3125 0.25 0.328125 0.6875l-0.609375 0q-0.015625 -0.1875 -0.15625 -0.296875q-0.140625 -0.125 -0.390625 -0.125q-0.234375 0 -0.359375 0.09375q-0.125 0.078125 -0.125 0.234375q0 0.109375 0.078125 0.203125q0.09375 0.078125 0.203125 0.125q0.125 0.03125 0.375 0.109375q0.3125 0.078125 0.515625 0.171875q0.203125 0.09375 0.34375 0.265625q0.15625 0.15625 0.171875 0.4375q0 0.265625 -0.140625 0.46875q-0.140625 0.1875 -0.390625 0.296875q-0.25 0.109375 -0.59375 0.109375zm4.4702454 -1.59375q0 0.171875 -0.03125 0.3125l-2.234375 0q0.03125 0.34375 0.265625 0.5625q0.234375 0.203125 0.5625 0.203125q0.5 0 0.703125 -0.40625l0.65625 0q-0.140625 0.40625 -0.5 0.671875q-0.34375 0.25 -0.859375 0.25q-0.421875 0 -0.75 -0.1875q-0.328125 -0.1875 -0.515625 -0.53125q-0.1875 -0.34375 -0.1875 -0.796875q0 -0.453125 0.171875 -0.796875q0.1875 -0.34375 0.515625 -0.53125q0.34375 -0.1875 0.765625 -0.1875q0.421875 0 0.75 0.1875q0.328125 0.171875 0.5 0.5q0.1875 0.328125 0.1875 0.75zm-0.640625 -0.1875q0 -0.328125 -0.234375 -0.53125q-0.234375 -0.203125 -0.578125 -0.203125q-0.3125 0 -0.546875 0.203125q-0.21875 0.1875 -0.265625 0.53125l1.625 0zm1.0375061 0.265625q0 -0.453125 0.171875 -0.796875q0.1875 -0.34375 0.515625 -0.53125q0.328125 -0.1875 0.75 -0.1875q0.53125 0 0.875 0.25q0.34375 0.25 0.46875 0.71875l-0.65625 0q-0.078125 -0.21875 -0.25 -0.328125q-0.171875 -0.125 -0.4375 -0.125q-0.375 0 -0.59375 0.265625q-0.21875 0.265625 -0.21875 0.734375q0 0.46875 0.21875 0.734375q0.21875 0.265625 0.59375 0.265625q0.515625 0 0.6875 -0.453125l0.65625 0q-0.125 0.4375 -0.484375 0.703125q-0.34375 0.265625 -0.859375 0.265625q-0.421875 0 -0.75 -0.1875q-0.328125 -0.1875 -0.515625 -0.53125q-0.171875 -0.34375 -0.171875 -0.796875zm4.1031494 -0.96875l0 1.625q0 0.15625 0.078125 0.234375q0.078125 0.078125 0.265625 0.078125l0.375 0l0 0.5l-0.484375 0q-0.40625 0 -0.625 -0.1875q-0.21875 -0.203125 -0.21875 -0.625l0 -1.625l-0.34375 0l0 -0.5l0.34375 0l0 -0.734375l0.609375 0l0 0.734375l0.71875 0l0 0.5l-0.71875 0zm3.9352112 -0.5l0 2.9375l-0.609375 0l0 -0.34375q-0.140625 0.171875 -0.375 0.28125q-0.234375 0.109375 -0.5 0.109375q-0.34375 0 -0.625 -0.140625q-0.265625 -0.15625 -0.421875 -0.4375q-0.15625 -0.28125 -0.15625 -0.671875l0 -1.734375l0.59375 0l0 1.640625q0 0.390625 0.203125 0.609375q0.203125 0.203125 0.53125 0.203125q0.34375 0 0.546875 -0.203125q0.203125 -0.21875 0.203125 -0.609375l0 -1.640625l0.609375 0zm1.3955078 0.421875q0.140625 -0.21875 0.359375 -0.34375q0.21875 -0.125 0.53125 -0.125l0 0.625l-0.15625 0q-0.359375 0 -0.546875 0.1875q-0.1875 0.171875 -0.1875 0.625l0 1.546875l-0.59375 0l0 -2.9375l0.59375 0l0 0.421875zm3.9000854 2.5625q-0.34375 0 -0.625 -0.125q-0.28125 -0.125 -0.4375 -0.34375q-0.15625 -0.21875 -0.171875 -0.484375l0.640625 0q0.015625 0.1875 0.171875 0.3125q0.15625 0.125 0.40625 0.125q0.25 0 0.390625 -0.09375q0.15625 -0.09375 0.15625 -0.25q0 -0.171875 -0.171875 -0.25q-0.15625 -0.078125 -0.484375 -0.171875q-0.34375 -0.09375 -0.546875 -0.171875q-0.203125 -0.09375 -0.359375 -0.265625q-0.15625 -0.171875 -0.15625 -0.46875q0 -0.234375 0.140625 -0.421875q0.140625 -0.203125 0.390625 -0.3125q0.265625 -0.109375 0.609375 -0.109375q0.5 0 0.796875 0.25q0.3125 0.25 0.328125 0.6875l-0.609375 0q-0.015625 -0.1875 -0.15625 -0.296875q-0.140625 -0.125 -0.390625 -0.125q-0.234375 0 -0.359375 0.09375q-0.125 0.078125 -0.125 0.234375q0 0.109375 0.078125 0.203125q0.09375 0.078125 0.203125 0.125q0.125 0.03125 0.375 0.109375q0.3125 0.078125 0.515625 0.171875q0.203125 0.09375 0.34375 0.265625q0.15625 0.15625 0.171875 0.4375q0 0.265625 -0.140625 0.46875q-0.140625 0.1875 -0.390625 0.296875q-0.25 0.109375 -0.59375 0.109375zm2.0796204 -3.375q-0.15625 0 -0.28125 -0.109375q-0.109375 -0.109375 -0.109375 -0.28125q0 -0.15625 0.109375 -0.265625q0.125 -0.125 0.28125 -0.125q0.171875 0 0.28125 0.125q0.109375 0.109375 0.109375 0.265625q0 0.171875 -0.109375 0.28125q-0.109375 0.109375 -0.28125 0.109375zm0.296875 0.390625l0 2.9375l-0.59375 0l0 -2.9375l0.59375 0zm1.5160217 0.5l0 1.625q0 0.15625 0.078125 0.234375q0.078125 0.078125 0.265625 0.078125l0.375 0l0 0.5l-0.484375 0q-0.40625 0 -0.625 -0.1875q-0.21875 -0.203125 -0.21875 -0.625l0 -1.625l-0.34375 0l0 -0.5l0.34375 0l0 -0.734375l0.609375 0l0 0.734375l0.71875 0l0 0.5l-0.71875 0zm2.4611816 0.953125q0 -0.4375 0.171875 -0.78125q0.1875 -0.34375 0.5 -0.53125q0.328125 -0.1875 0.703125 -0.1875q0.34375 0 0.609375 0.140625q0.265625 0.125 0.40625 0.328125l0 -0.421875l0.625 0l0 2.9375l-0.625 0l0 -0.4375q-0.140625 0.203125 -0.421875 0.34375q-0.265625 0.140625 -0.59375 0.140625q-0.390625 0 -0.703125 -0.1875q-0.3125 -0.203125 -0.5 -0.546875q-0.171875 -0.34375 -0.171875 -0.796875zm2.390625 0.015625q0 -0.3125 -0.125 -0.53125q-0.125 -0.21875 -0.328125 -0.328125q-0.203125 -0.125 -0.4375 -0.125q-0.234375 0 -0.4375 0.109375q-0.1875 0.109375 -0.3125 0.34375q-0.125 0.21875 -0.125 0.515625q0 0.3125 0.125 0.546875q0.125 0.21875 0.328125 0.34375q0.203125 0.109375 0.421875 0.109375q0.234375 0 0.4375 -0.109375q0.203125 -0.125 0.328125 -0.34375q0.125 -0.234375 0.125 -0.53125zm4.971863 -1.515625q0.34375 0 0.609375 0.140625q0.28125 0.140625 0.4375 0.4375q0.15625 0.28125 0.15625 0.671875l0 1.734375l-0.59375 0l0 -1.640625q0 -0.390625 -0.203125 -0.59375q-0.1875 -0.21875 -0.53125 -0.21875q-0.34375 0 -0.546875 0.21875q-0.203125 0.203125 -0.203125 0.59375l0 1.640625l-0.59375 0l0 -1.640625q0 -0.390625 -0.203125 -0.59375q-0.1875 -0.21875 -0.53125 -0.21875q-0.34375 0 -0.546875 0.21875q-0.203125 0.203125 -0.203125 0.59375l0 1.640625l-0.59375 0l0 -2.9375l0.59375 0l0 0.34375q0.15625 -0.1875 0.375 -0.28125q0.234375 -0.109375 0.5 -0.109375q0.359375 0 0.625 0.15625q0.28125 0.140625 0.4375 0.421875q0.125 -0.265625 0.40625 -0.421875q0.28125 -0.15625 0.609375 -0.15625zm4.676605 1.4375q0 0.171875 -0.03125 0.3125l-2.234375 0q0.03125 0.34375 0.265625 0.5625q0.234375 0.203125 0.5625 0.203125q0.5 0 0.703125 -0.40625l0.65625 0q-0.140625 0.40625 -0.5 0.671875q-0.34375 0.25 -0.859375 0.25q-0.421875 0 -0.75 -0.1875q-0.328125 -0.1875 -0.515625 -0.53125q-0.1875 -0.34375 -0.1875 -0.796875q0 -0.453125 0.171875 -0.796875q0.1875 -0.34375 0.515625 -0.53125q0.34375 -0.1875 0.765625 -0.1875q0.421875 0 0.75 0.1875q0.328125 0.171875 0.5 0.5q0.1875 0.328125 0.1875 0.75zm-0.640625 -0.1875q0 -0.328125 -0.234375 -0.53125q-0.234375 -0.203125 -0.578125 -0.203125q-0.3125 0 -0.546875 0.203125q-0.21875 0.1875 -0.265625 0.53125l1.625 0zm1.9437561 -0.703125l0 1.625q0 0.15625 0.078125 0.234375q0.078125 0.078125 0.265625 0.078125l0.375 0l0 0.5l-0.484375 0q-0.40625 0 -0.625 -0.1875q-0.21875 -0.203125 -0.21875 -0.625l0 -1.625l-0.34375 0l0 -0.5l0.34375 0l0 -0.734375l0.609375 0l0 0.734375l0.71875 0l0 0.5l-0.71875 0z" fill-rule="nonzero"/><path fill="#000000" fill-opacity="0.0" d="m23.855642 54.86907l0 0c0 -8.320679 6.745241 -15.065918 15.06592 -15.065918l221.99414 0c3.9957275 0 7.8277893 1.5872955 10.653198 4.4127045c2.825409 2.825409 4.4127197 6.657482 4.4127197 10.6532135l0 60.261868c0 8.320671 -6.7452393 15.065918 -15.065918 15.065918l-221.99414 0c-8.320679 0 -15.06592 -6.745247 -15.06592 -15.065918z" fill-rule="evenodd"/><path stroke="#ffffff" stroke-width="4.0" stroke-linejoin="round" stroke-linecap="butt" d="m23.855642 54.86907l0 0c0 -8.320679 6.745241 -15.065918 15.06592 -15.065918l221.99414 0c3.9957275 0 7.8277893 1.5872955 10.653198 4.4127045c2.825409 2.825409 4.4127197 6.657482 4.4127197 10.6532135l0 60.261868c0 8.320671 -6.7452393 15.065918 -15.065918 15.065918l-221.99414 0c-8.320679 0 -15.06592 -6.745247 -15.06592 -15.065918z" fill-rule="evenodd"/><path fill="#000000" fill-opacity="0.0" d="m103.144356 103.80842l41.889763 0l0 2.1732254l-41.889763 0z" fill-rule="evenodd"/><path stroke="#ffffff" stroke-width="3.0" stroke-linejoin="round" stroke-linecap="butt" d="m103.144356 103.80842l41.889763 0l0 2.1732254l-41.889763 0z" fill-rule="evenodd"/><path fill="#000000" fill-opacity="0.0" d="m155.56693 103.808395l44.881897 0l0 2.173233l-44.881897 0z" fill-rule="evenodd"/><path stroke="#ffffff" stroke-width="3.0" stroke-linejoin="round" stroke-linecap="butt" d="m155.56693 103.808395l44.881897 0l0 2.173233l-44.881897 0z" fill-rule="evenodd"/></g></svg>