<svg version="1.1" viewBox="0.0 0.0 300.0 170.0" fill="none" stroke="none" stroke-linecap="square" stroke-miterlimit="10" xmlns:xlink="http://www.w3.org/1999/xlink" xmlns="http://www.w3.org/2000/svg"><clipPath id="g2c285d2dd50_1_0.0"><path d="m0 0l300.0 0l0 170.0l-300.0 0l0 -170.0z" clip-rule="nonzero"/></clipPath><g clip-path="url(#g2c285d2dd50_1_0.0)"><path fill="#ffffff" d="m0 0l300.0 0l0 170.0l-300.0 0z" fill-rule="evenodd"/><path fill="#263238" d="m-0.002624672 0.0131233595l300.0 0l0 169.98425l-300.0 0z" fill-rule="evenodd"/><path stroke="#000000" stroke-width="1.0" stroke-linejoin="round" stroke-linecap="butt" d="m-0.002624672 0.0131233595l300.0 0l0 169.98425l-300.0 0z" fill-rule="evenodd"/><path fill="#ffffff" d="m23.855642 54.86907l0 0c0 -8.320679 6.745241 -15.065918 15.06592 -15.065918l221.99414 0c3.9957275 0 7.8277893 1.5872955 10.653198 4.4127045c2.825409 2.825409 4.4127197 6.657482 4.4127197 10.6532135l0 60.261868c0 8.320671 -6.7452393 15.065918 -15.065918 15.065918l-221.99414 0c-8.320679 0 -15.06592 -6.745247 -15.06592 -15.065918z" fill-rule="evenodd"/><path stroke="#ffffff" stroke-width="4.0" stroke-linejoin="round" stroke-linecap="butt" d="m23.855642 54.86907l0 0c0 -8.320679 6.745241 -15.065918 15.06592 -15.065918l221.99414 0c3.9957275 0 7.8277893 1.5872955 10.653198 4.4127045c2.825409 2.825409 4.4127197 6.657482 4.4127197 10.6532135l0 60.261868c0 8.320671 -6.7452393 15.065918 -15.065918 15.065918l-221.99414 0c-8.320679 0 -15.06592 -6.745247 -15.06592 -15.065918z" fill-rule="evenodd"/><path fill="#000000" fill-opacity="0.0" d="m40.183727 62.454212l0 0c0 -3.9226074 3.1799011 -7.1025047 7.1025047 -7.1025047l28.409164 0l0 0c1.8836975 0 3.6902542 0.74829483 5.022232 2.0802727c1.3319778 1.3319778 2.0802689 3.1385307 2.0802689 5.022232l0 45.102077c0 3.9225998 -3.1798935 7.102501 -7.102501 7.102501l-28.409164 0c-3.9226036 0 -7.1025047 -3.1799011 -7.1025047 -7.102501z" fill-rule="evenodd"/><path stroke="#000000" stroke-width="4.0" stroke-linejoin="round" stroke-linecap="butt" d="m40.183727 62.454212l0 0c0 -3.9226074 3.1799011 -7.1025047 7.1025047 -7.1025047l28.409164 0l0 0c1.8836975 0 3.6902542 0.74829483 5.022232 2.0802727c1.3319778 1.3319778 2.0802689 3.1385307 2.0802689 5.022232l0 45.102077c0 3.9225998 -3.1798935 7.102501 -7.102501 7.102501l-28.409164 0c-3.9226036 0 -7.1025047 -3.1799011 -7.1025047 -7.102501z" fill-rule="evenodd"/><path fill="#000000" fill-opacity="0.0" d="m92.87849 62.454212l0 0c0 -3.9226074 3.1798935 -7.1025047 7.102501 -7.1025047l28.409164 0l0 0c1.8836975 0 3.6902466 0.74829483 5.022232 2.0802727c1.3319702 1.3319778 2.0802765 3.1385307 2.0802765 5.022232l0 45.102077c0 3.9225998 -3.1799011 7.102501 -7.1025085 7.102501l-28.409164 0c-3.9226074 0 -7.102501 -3.1799011 -7.102501 -7.102501z" fill-rule="evenodd"/><path stroke="#000000" stroke-width="4.0" stroke-linejoin="round" stroke-linecap="butt" d="m92.87849 62.454212l0 0c0 -3.9226074 3.1798935 -7.1025047 7.102501 -7.1025047l28.409164 0l0 0c1.8836975 0 3.6902466 0.74829483 5.022232 2.0802727c1.3319702 1.3319778 2.0802765 3.1385307 2.0802765 5.022232l0 45.102077c0 3.9225998 -3.1799011 7.102501 -7.1025085 7.102501l-28.409164 0c-3.9226074 0 -7.102501 -3.1799011 -7.102501 -7.102501z" fill-rule="evenodd"/><path fill="#000000" fill-opacity="0.0" d="m143.18517 62.454212l0 0c0 -3.9226074 3.1799011 -7.1025047 7.1025085 -7.1025047l28.409164 0l0 0c1.8836975 0 3.6902466 0.74829483 5.022232 2.0802727c1.3319702 1.3319778 2.0802765 3.1385307 2.0802765 5.022232l0 45.102077c0 3.9225998 -3.1799011 7.102501 -7.1025085 7.102501l-28.409164 0c-3.9226074 0 -7.1025085 -3.1799011 -7.1025085 -7.102501z" fill-rule="evenodd"/><path stroke="#000000" stroke-width="4.0" stroke-linejoin="round" stroke-linecap="butt" d="m143.18517 62.454212l0 0c0 -3.9226074 3.1799011 -7.1025047 7.1025085 -7.1025047l28.409164 0l0 0c1.8836975 0 3.6902466 0.74829483 5.022232 2.0802727c1.3319702 1.3319778 2.0802765 3.1385307 2.0802765 5.022232l0 45.102077c0 3.9225998 -3.1799011 7.102501 -7.1025085 7.102501l-28.409164 0c-3.9226074 0 -7.1025085 -3.1799011 -7.1025085 -7.102501z" fill-rule="evenodd"/></g></svg>