<!DOCTYPE svg PUBLIC "-//W3C//DTD SVG 1.1//EN" "http://www.w3.org/Graphics/SVG/1.1/DTD/svg11.dtd">
<!-- Uploaded to: SVG Repo, www.svgrepo.com, Transformed by: SVG Repo Mixer Tools -->
<svg version="1.1" id="Icons" xmlns="http://www.w3.org/2000/svg" xmlns:xlink="http://www.w3.org/1999/xlink" viewBox="-19.2 -19.2 70.40 70.40" xml:space="preserve" width="800px" height="800px" fill="#858585" stroke="#858585">
<g id="SVGRepo_bgCarrier" stroke-width="0"/>
<g id="SVGRepo_tracerCarrier" stroke-linecap="round" stroke-linejoin="round"/>
<g id="SVGRepo_iconCarrier"> <style type="text/css"> .st0{fill:none;stroke:#cccccc;stroke-width:0.32;stroke-linecap:round;stroke-linejoin:round;stroke-miterlimit:10;} .st1{fill:none;stroke:#cccccc;stroke-width:0.32;stroke-linejoin:round;stroke-miterlimit:10;} </style> <line class="st0" x1="3" y1="3" x2="29" y2="29"/> <path class="st0" d="M23,9l-1.4-2.9c-0.3-0.7-1-1.1-1.8-1.1h-7.5c-0.8,0-1.5,0.4-1.8,1.1L9,9H5c-1.1,0-2,0.9-2,2v14c0,1.1,0.9,2,2,2 h22c1.1,0,2-0.9,2-2V11c0-1.1-0.9-2-2-2H23z"/> <circle class="st0" cx="16" cy="17" r="6"/> <line class="st0" x1="6" y1="12" x2="8" y2="12"/> </g>
</svg>