<svg version="1.1" viewBox="0.0 0.0 300.0 100.0" fill="none" stroke="none" stroke-linecap="square" stroke-miterlimit="10" xmlns:xlink="http://www.w3.org/1999/xlink" xmlns="http://www.w3.org/2000/svg"><clipPath id="g2ed66e2ab17_0_2.0"><path d="m0 0l300.0 0l0 100.0l-300.0 0l0 -100.0z" clip-rule="nonzero"/></clipPath><g clip-path="url(#g2ed66e2ab17_0_2.0)"><path fill="#000000" fill-opacity="0.0" d="m0 0l300.0 0l0 100.0l-300.0 0z" fill-rule="evenodd"/><path fill="#000000" fill-opacity="0.0" d="m0 0l300.0 0l0 100.0l-300.0 0z" fill-rule="evenodd"/><path fill="#ffffff" d="m94.5259 66.8q-0.84375 0 -1.421875 -0.5625q-0.578125 -0.5625 -0.578125 -1.4375l0 -32.4375q0 -0.828125 0.578125 -1.40625q0.578125 -0.59375 1.421875 -0.59375q0.84375 0 1.421875 0.59375q0.578125 0.578125 0.578125 1.40625l0 30.5625l17.828125 0q0.84375 0 1.421875 0.5625q0.578125 0.5625 0.578125 1.359375q0 0.828125 -0.578125 1.390625q-0.578125 0.5625 -1.421875 0.5625l-19.828125 0zm38.81391 0.234375q-3.78125 0 -6.7031174 -1.671875q-2.90625 -1.6875 -4.59375 -4.625q-1.671875 -2.9375 -1.671875 -6.671875q0 -3.78125 1.671875 -6.71875q1.6875 -2.9375 4.59375 -4.609375q2.9218674 -1.6875 6.7031174 -1.6875q3.734375 0 6.625 1.6875q2.890625 1.671875 4.5625 4.609375q1.6875 2.9375 1.734375 6.71875q0 3.734375 -1.6875 6.671875q-1.671875 2.9375 -4.59375 4.625q-2.90625 1.671875 -6.640625 1.671875zm0 -3.546875q2.609375 0 4.65625 -1.234375q2.0625 -1.234375 3.234375 -3.359375q1.171875 -2.125 1.171875 -4.828125q0 -2.703125 -1.171875 -4.84375q-1.171875 -2.15625 -3.234375 -3.390625q-2.046875 -1.234375 -4.65625 -1.234375q-2.609375 0 -4.6875 1.234375q-2.0781174 1.234375 -3.2656174 3.390625q-1.1875 2.140625 -1.1875 4.84375q0 2.703125 1.1875 4.828125q1.1875 2.125 3.2656174 3.359375q2.078125 1.234375 4.6875 1.234375zm30.97705 3.546875q-3.625 0 -6.4375 -1.65625q-2.796875 -1.65625 -4.390625 -4.59375q-1.578125 -2.9375 -1.578125 -6.71875q0 -3.828125 1.671875 -6.765625q1.6875 -2.9375 4.59375 -4.59375q2.921875 -1.65625 6.703125 -1.65625q3.734375 0 6.640625 1.65625q2.921875 1.65625 4.578125 4.59375q1.65625 2.9375 1.703125 6.765625l-2.328125 0.796875q0 3.546875 -1.421875 6.296875q-1.421875 2.75 -3.953125 4.3125q-2.515625 1.5625 -5.78125 1.5625zm0.5625 9.984375q-3.546875 0 -6.375 -1.359375q-2.8125 -1.34375 -4.71875 -3.78125q-0.515625 -0.59375 -0.421875 -1.328125q0.09375 -0.71875 0.734375 -1.140625q0.703125 -0.46875 1.5 -0.328125q0.796875 0.140625 1.265625 0.796875q1.296875 1.640625 3.34375 2.609375q2.0625 0.984375 4.765625 0.984375q2.46875 0 4.515625 -1.1875q2.0625 -1.1875 3.25 -3.4375q1.203125 -2.234375 1.203125 -5.3125l0 -6.90625l1.390625 -3.171875l2.46875 0.609375l0 9.703125q0 3.734375 -1.6875 6.734375q-1.671875 3.015625 -4.5625 4.765625q-2.890625 1.75 -6.671875 1.75zm0 -13.53125q2.65625 0 4.6875 -1.203125q2.03125 -1.21875 3.203125 -3.34375q1.171875 -2.125 1.171875 -4.875q0 -2.75 -1.171875 -4.890625q-1.171875 -2.15625 -3.203125 -3.359375q-2.03125 -1.21875 -4.6875 -1.21875q-2.65625 0 -4.71875 1.21875q-2.046875 1.203125 -3.234375 3.359375q-1.1875 2.140625 -1.1875 4.890625q0 2.75 1.1875 4.875q1.1875 2.125 3.234375 3.34375q2.0625 1.203125 4.71875 1.203125zm31.53955 3.546875q-3.78125 0 -6.703125 -1.671875q-2.90625 -1.6875 -4.59375 -4.625q-1.671875 -2.9375 -1.671875 -6.671875q0 -3.78125 1.671875 -6.71875q1.6875 -2.9375 4.59375 -4.609375q2.921875 -1.6875 6.703125 -1.6875q3.734375 0 6.625 1.6875q2.890625 1.671875 4.5625 4.609375q1.6875 2.9375 1.734375 6.71875q0 3.734375 -1.6875 6.671875q-1.671875 2.9375 -4.59375 4.625q-2.90625 1.671875 -6.640625 1.671875zm0 -3.546875q2.609375 0 4.65625 -1.234375q2.0625 -1.234375 3.234375 -3.359375q1.171875 -2.125 1.171875 -4.828125q0 -2.703125 -1.171875 -4.84375q-1.171875 -2.15625 -3.234375 -3.390625q-2.046875 -1.234375 -4.65625 -1.234375q-2.609375 0 -4.6875 1.234375q-2.078125 1.234375 -3.265625 3.390625q-1.1875 2.140625 -1.1875 4.84375q0 2.703125 1.1875 4.828125q1.1875 2.125 3.265625 3.359375q2.078125 1.234375 4.6875 1.234375z" fill-rule="nonzero"/><path fill="#000000" fill-opacity="0.0" d="m201.17323 5.52231l37.984253 0l0 50.078743l-37.984253 0z" fill-rule="evenodd"/><path fill="#ffffff" d="m219.54823 21.24418q2.34375 0 4.578125 1.203125q2.25 1.203125 3.5 3.453125q1.25 2.25 1.25 4.671875q0 2.421873 -1.234375 4.656248q-1.234375 2.21875 -3.453125 3.453125q-2.21875 1.21875 -4.640625 1.21875q-2.421875 0 -4.640625 -1.21875q-2.21875 -1.234375 -3.46875 -3.453125q-1.234375 -2.234375 -1.234375 -4.656248q0 -2.421875 1.25 -4.671875q1.265625 -2.25 3.5 -3.453125q2.25 -1.203125 4.59375 -1.203125zm0 1.546875q-1.96875 0 -3.828125 1.015625q-1.859375 1.0 -2.921875 2.875q-1.046875 1.875 -1.046875 3.890625q0 2.015623 1.03125 3.874998q1.03125 1.84375 2.890625 2.875q1.859375 1.03125 3.875 1.03125q2.015625 0 3.859375 -1.03125q1.859375 -1.03125 2.890625 -2.875q1.03125 -1.859375 1.03125 -3.874998q0 -2.015625 -1.046875 -3.890625q-1.046875 -1.875 -2.921875 -2.875q-1.859375 -1.015625 -3.8125 -1.015625zm3.0 9.296873l1.515625 0.453125q-0.375 1.53125 -1.578125 2.453125q-1.203125 0.921875 -2.921875 0.921875q-2.1875 0 -3.546875 -1.40625q-1.359375 -1.40625 -1.359375 -3.906248q0 -1.625 0.609375 -2.828125q0.625 -1.21875 1.765625 -1.828125q1.15625 -0.609375 2.625 -0.609375q1.640625 0 2.734375 0.78125q1.09375 0.78125 1.484375 2.140625l-1.46875 0.359375q-0.375 -0.921875 -1.109375 -1.40625q-0.71875 -0.484375 -1.6875 -0.484375q-1.421875 0 -2.34375 1.015625q-0.921875 1.0 -0.921875 2.890625q0 1.9062481 0.875 2.874998q0.875 0.96875 2.25 0.96875q1.109375 0 1.953125 -0.640625q0.84375 -0.65625 1.125 -1.75z" fill-rule="nonzero"/></g></svg>