<svg version="1.1" viewBox="0.0 0.0 1280.0 720.0" fill="none" stroke="none" stroke-linecap="square" stroke-miterlimit="10" xmlns:xlink="http://www.w3.org/1999/xlink" xmlns="http://www.w3.org/2000/svg"><clipPath id="p.0"><path d="m0 0l1280.0 0l0 720.0l-1280.0 0l0 -720.0z" clip-rule="nonzero"/></clipPath><g clip-path="url(#p.0)"><path fill="#000000" fill-opacity="0.0" d="m0 0l1280.0 0l0 720.0l-1280.0 0z" fill-rule="evenodd"/><path fill="#ffffff" d="m68.56693 257.40784l0 0c0 -28.330872 22.96672 -51.297607 51.297607 -51.297607l1040.271 0c13.60498 0 26.65271 5.4045563 36.272827 15.0247345c9.620239 9.620163 15.02478 22.667908 15.02478 36.272873l0 205.18433c0 28.330872 -22.966797 51.297607 -51.297607 51.297607l-1040.271 0c-28.330887 0 -51.297607 -22.966736 -51.297607 -51.297607z" fill-rule="evenodd"/><path fill="#000000" d="m158.44095 360.0l0 0c0 -30.127777 24.423386 -54.551178 54.551178 -54.551178l0 0c14.467865 0 28.343185 5.747345 38.573517 15.977661c10.230316 10.230347 15.977661 24.105652 15.977661 38.573517l0 0c0 30.127777 -24.423386 54.551178 -54.551178 54.551178l0 0c-30.127792 0 -54.551178 -24.4234 -54.551178 -54.551178z" fill-rule="evenodd"/><path fill="#000000" d="m282.23358 360.0l0 0c0 -30.127777 24.4234 -54.551178 54.55121 -54.551178l0 0c14.467865 0 28.34317 5.747345 38.573486 15.977661c10.230347 10.230347 15.977692 24.105652 15.977692 38.573517l0 0c0 30.127777 -24.4234 54.551178 -54.551178 54.551178l0 0c-30.127808 0 -54.55121 -24.4234 -54.55121 -54.551178z" fill-rule="evenodd"/><path fill="#000000" d="m406.02625 360.0l0 0c0 -30.127777 24.4234 -54.551178 54.551178 -54.551178l0 0c14.467865 0 28.34317 5.747345 38.573517 15.977661c10.230316 10.230347 15.977661 24.105652 15.977661 38.573517l0 0c0 30.127777 -24.4234 54.551178 -54.551178 54.551178l0 0c-30.127777 0 -54.551178 -24.4234 -54.551178 -54.551178z" fill-rule="evenodd"/><path fill="#000000" d="m529.8189 360.0l0 0c0 -30.127777 24.4234 -54.551178 54.551147 -54.551178l0 0c14.4678955 0 28.3432 5.747345 38.573547 15.977661c10.230347 10.230347 15.977661 24.105652 15.977661 38.573517l0 0c0 30.127777 -24.4234 54.551178 -54.55121 54.551178l0 0c-30.127747 0 -54.551147 -24.4234 -54.551147 -54.551178z" fill-rule="evenodd"/><path fill="#000000" d="m653.6116 360.0l0 0c0 -30.127777 24.4234 -54.551178 54.551147 -54.551178l0 0c14.4678955 0 28.3432 5.747345 38.573547 15.977661c10.230286 10.230347 15.977661 24.105652 15.977661 38.573517l0 0c0 30.127777 -24.4234 54.551178 -54.55121 54.551178l0 0c-30.127747 0 -54.551147 -24.4234 -54.551147 -54.551178z" fill-rule="evenodd"/><path fill="#000000" d="m777.4042 360.0l0 0c0 -30.127777 24.4234 -54.551178 54.55121 -54.551178l0 0c14.4678955 0 28.3432 5.747345 38.573486 15.977661c10.230347 10.230347 15.977722 24.105652 15.977722 38.573517l0 0c0 30.127777 -24.4234 54.551178 -54.55121 54.551178l0 0c-30.127808 0 -54.55121 -24.4234 -54.55121 -54.551178z" fill-rule="evenodd"/></g></svg>