<svg version="1.1" viewBox="0.0 0.0 1280.0 720.0" fill="none" stroke="none" stroke-linecap="square" stroke-miterlimit="10" xmlns:xlink="http://www.w3.org/1999/xlink" xmlns="http://www.w3.org/2000/svg"><clipPath id="g2e4640028ef_0_0.0"><path d="m0 0l1280.0 0l0 720.0l-1280.0 0l0 -720.0z" clip-rule="nonzero"/></clipPath><g clip-path="url(#g2e4640028ef_0_0.0)"><path fill="#000000" fill-opacity="0.0" d="m0 0l1280.0 0l0 720.0l-1280.0 0z" fill-rule="evenodd"/><path fill="#ffffff" d="m68.56693 309.38632l0 0c0 -13.97699 11.330589 -25.307587 25.307587 -25.307587l1092.251 0c6.712036 0 13.149048 2.6663208 17.895142 7.4124146c4.7460938 4.7460938 7.4124756 11.183197 7.4124756 17.895172l0 101.227356c0 13.97699 -11.330688 25.307587 -25.307617 25.307587l-1092.251 0c-13.976997 0 -25.307587 -11.330597 -25.307587 -25.307587z" fill-rule="evenodd"/><path fill="#000000" d="m330.88974 350.3518l0 0c0 -2.6643677 2.159912 -4.8242493 4.8242493 -4.8242493l95.04443 0c1.27948 0 2.5065308 0.50827026 3.411255 1.4129944c0.9047241 0.9047241 1.4129944 2.131775 1.4129944 3.411255l0 19.296387c0 2.6643677 -2.1598816 4.8242493 -4.8242493 4.8242493l-95.04443 0c-2.6643372 0 -4.8242493 -2.1598816 -4.8242493 -4.8242493z" fill-rule="evenodd"/><path fill="#000000" d="m460.1328 350.3518l0 0c0 -2.6643677 2.159912 -4.8242493 4.8242493 -4.8242493l95.0444 0c1.27948 0 2.5065308 0.50827026 3.411255 1.4129944c0.9047241 0.9047241 1.4130249 2.131775 1.4130249 3.411255l0 19.296387c0 2.6643677 -2.159912 4.8242493 -4.82428 4.8242493l-95.0444 0c-2.6643372 0 -4.8242493 -2.1598816 -4.8242493 -4.8242493z" fill-rule="evenodd"/><path fill="#000000" d="m589.3759 350.3518l0 0c0 -2.6643677 2.159851 -4.8242493 4.8242188 -4.8242493l95.04443 0c1.27948 0 2.5065308 0.50827026 3.411255 1.4129944c0.9047241 0.9047241 1.4129639 2.131775 1.4129639 3.411255l0 19.296387c0 2.6643677 -2.159851 4.8242493 -4.8242188 4.8242493l-95.04443 0c-2.6643677 0 -4.8242188 -2.1598816 -4.8242188 -4.8242493z" fill-rule="evenodd"/><path fill="#000000" d="m718.61786 350.3518l0 0c0 -2.6643677 2.159851 -4.8242493 4.8242188 -4.8242493l95.04443 0c1.27948 0 2.5065308 0.50827026 3.411255 1.4129944c0.9047241 0.9047241 1.4129639 2.131775 1.4129639 3.411255l0 19.296387c0 2.6643677 -2.159851 4.8242493 -4.8242188 4.8242493l-95.04443 0c-2.6643677 0 -4.8242188 -2.1598816 -4.8242188 -4.8242493z" fill-rule="evenodd"/><path fill="#000000" d="m122.41732 333.3021l0 0c0 -7.3726196 5.9767075 -13.349335 13.349358 -13.349335l104.734375 0c3.5404663 0 6.935913 1.4064331 9.439407 3.9099426c2.5034943 2.503479 3.9099274 5.898926 3.9099274 9.439392l0 53.395813c0 7.3726196 -5.9767 13.349335 -13.349335 13.349335l-104.734375 0c-7.37265 0 -13.349358 -5.976715 -13.349358 -13.349335z" fill-rule="evenodd"/></g></svg>