<svg version="1.1" viewBox="0.0 0.0 1280.0 720.0" fill="none" stroke="none" stroke-linecap="square" stroke-miterlimit="10" xmlns:xlink="http://www.w3.org/1999/xlink" xmlns="http://www.w3.org/2000/svg"><clipPath id="g2dfe87ab1c8_0_66.0"><path d="m0 0l1280.0 0l0 720.0l-1280.0 0l0 -720.0z" clip-rule="nonzero"/></clipPath><g clip-path="url(#g2dfe87ab1c8_0_66.0)"><path fill="#000000" fill-opacity="0.0" d="m0 0l1280.0 0l0 720.0l-1280.0 0z" fill-rule="evenodd"/><path fill="#000000" d="m68.56693 168.00192l0 0c0 -53.0204 42.98152 -96.00192 96.001915 -96.00192l950.8623 0c25.461304 0 49.87976 10.114456 67.88367 28.118309c18.003784 18.003853 28.118286 42.422325 28.118286 67.88361l0 383.9962c0 53.020386 -42.981567 96.00189 -96.00195 96.00189l-950.8623 0c-53.020393 0 -96.001915 -42.981506 -96.001915 -96.00189z" fill-rule="evenodd"/><path fill="#000000" fill-opacity="0.0" d="m640.0 72.0l0 576.0" fill-rule="evenodd"/><path stroke="#ffffff" stroke-width="24.0" stroke-linejoin="round" stroke-linecap="butt" d="m640.0 72.0l0 576.0" fill-rule="evenodd"/><path fill="#000000" fill-opacity="0.0" d="m196.43045 267.08923l159.62204 1.2913513" fill-rule="evenodd"/><path stroke="#ffffff" stroke-width="24.0" stroke-linejoin="round" stroke-linecap="butt" d="m196.43045 267.08923l159.62204 1.2913513" fill-rule="evenodd"/><path fill="#000000" fill-opacity="0.0" d="m196.43045 357.11548l342.20474 0.881897" fill-rule="evenodd"/><path stroke="#ffffff" stroke-width="24.0" stroke-linejoin="round" stroke-linecap="butt" d="m196.43045 357.11548l342.20474 0.881897" fill-rule="evenodd"/><path fill="#000000" fill-opacity="0.0" d="m196.43045 404.57217l342.20474 0.881897" fill-rule="evenodd"/><path stroke="#ffffff" stroke-width="24.0" stroke-linejoin="round" stroke-linecap="butt" d="m196.43045 404.57217l342.20474 0.881897" fill-rule="evenodd"/><path fill="#000000" fill-opacity="0.0" d="m196.43045 452.02887l342.20474 0.881897" fill-rule="evenodd"/><path stroke="#ffffff" stroke-width="24.0" stroke-linejoin="round" stroke-linecap="butt" d="m196.43045 452.02887l342.20474 0.881897" fill-rule="evenodd"/><path fill="#000000" fill-opacity="0.0" d="m758.76904 267.08923l159.62201 1.2913513" fill-rule="evenodd"/><path stroke="#ffffff" stroke-width="24.0" stroke-linejoin="round" stroke-linecap="butt" d="m758.76904 267.08923l159.62201 1.2913513" fill-rule="evenodd"/><path fill="#000000" fill-opacity="0.0" d="m758.76904 357.11548l342.2047 0.881897" fill-rule="evenodd"/><path stroke="#ffffff" stroke-width="24.0" stroke-linejoin="round" stroke-linecap="butt" d="m758.76904 357.11548l342.2047 0.881897" fill-rule="evenodd"/><path fill="#000000" fill-opacity="0.0" d="m758.76904 404.57217l342.2047 0.881897" fill-rule="evenodd"/><path stroke="#ffffff" stroke-width="24.0" stroke-linejoin="round" stroke-linecap="butt" d="m758.76904 404.57217l342.2047 0.881897" fill-rule="evenodd"/><path fill="#000000" fill-opacity="0.0" d="m758.76904 452.02887l342.2047 0.881897" fill-rule="evenodd"/><path stroke="#ffffff" stroke-width="24.0" stroke-linejoin="round" stroke-linecap="butt" d="m758.76904 452.02887l342.2047 0.881897" fill-rule="evenodd"/></g></svg>