<svg version="1.1" viewBox="0.0 0.0 1280.0 720.0" fill="none" stroke="none" stroke-linecap="square" stroke-miterlimit="10" xmlns:xlink="http://www.w3.org/1999/xlink" xmlns="http://www.w3.org/2000/svg"><clipPath id="g211f80a5160_0_52.0"><path d="m0 0l1280.0 0l0 720.0l-1280.0 0l0 -720.0z" clip-rule="nonzero"/></clipPath><g clip-path="url(#g211f80a5160_0_52.0)"><path fill="#000000" fill-opacity="0.0" d="m0 0l1280.0 0l0 720.0l-1280.0 0z" fill-rule="evenodd"/><path fill="#000000" d="m68.56693 168.00192l0 0c0 -53.0204 42.98152 -96.00192 96.001915 -96.00192l950.8623 0c25.461304 0 49.87976 10.114456 67.88367 28.118309c18.003784 18.003853 28.118286 42.422325 28.118286 67.88361l0 383.9962c0 53.020386 -42.981567 96.00189 -96.00195 96.00189l-950.8623 0c-53.020393 0 -96.001915 -42.981506 -96.001915 -96.00189z" fill-rule="evenodd"/><path fill="#000000" fill-opacity="0.0" d="m206.3882 358.33728l142.52238 0.88186646" fill-rule="evenodd"/><path stroke="#ffffff" stroke-width="24.0" stroke-linejoin="round" stroke-linecap="butt" d="m206.3882 358.33728l142.52238 0.88186646" fill-rule="evenodd"/><path fill="#000000" fill-opacity="0.0" d="m206.3882 405.79398l142.52238 0.88186646" fill-rule="evenodd"/><path stroke="#ffffff" stroke-width="24.0" stroke-linejoin="round" stroke-linecap="butt" d="m206.3882 405.79398l142.52238 0.88186646" fill-rule="evenodd"/><path fill="#000000" fill-opacity="0.0" d="m206.3882 453.25067l142.52238 0.88186646" fill-rule="evenodd"/><path stroke="#ffffff" stroke-width="24.0" stroke-linejoin="round" stroke-linecap="butt" d="m206.3882 453.25067l142.52238 0.88186646" fill-rule="evenodd"/><path fill="#000000" fill-opacity="0.0" d="m206.3882 263.4239l142.52238 0.881897" fill-rule="evenodd"/><path stroke="#ffffff" stroke-width="24.0" stroke-linejoin="round" stroke-linecap="butt" d="m206.3882 263.4239l142.52238 0.881897" fill-rule="evenodd"/><path fill="#000000" fill-opacity="0.0" d="m387.56387 358.33728l142.52237 0.88186646" fill-rule="evenodd"/><path stroke="#ffffff" stroke-width="24.0" stroke-linejoin="round" stroke-linecap="butt" d="m387.56387 358.33728l142.52237 0.88186646" fill-rule="evenodd"/><path fill="#000000" fill-opacity="0.0" d="m387.56387 405.79398l142.52237 0.88186646" fill-rule="evenodd"/><path stroke="#ffffff" stroke-width="24.0" stroke-linejoin="round" stroke-linecap="butt" d="m387.56387 405.79398l142.52237 0.88186646" fill-rule="evenodd"/><path fill="#000000" fill-opacity="0.0" d="m387.56387 453.25067l142.52237 0.88186646" fill-rule="evenodd"/><path stroke="#ffffff" stroke-width="24.0" stroke-linejoin="round" stroke-linecap="butt" d="m387.56387 453.25067l142.52237 0.88186646" fill-rule="evenodd"/><path fill="#000000" fill-opacity="0.0" d="m387.56387 263.4239l142.52237 0.881897" fill-rule="evenodd"/><path stroke="#ffffff" stroke-width="24.0" stroke-linejoin="round" stroke-linecap="butt" d="m387.56387 263.4239l142.52237 0.881897" fill-rule="evenodd"/><path fill="#000000" fill-opacity="0.0" d="m568.7376 360.78085l142.5224 0.88186646" fill-rule="evenodd"/><path stroke="#ffffff" stroke-width="24.0" stroke-linejoin="round" stroke-linecap="butt" d="m568.7376 360.78085l142.5224 0.88186646" fill-rule="evenodd"/><path fill="#000000" fill-opacity="0.0" d="m568.7376 408.23752l142.5224 0.881897" fill-rule="evenodd"/><path stroke="#ffffff" stroke-width="24.0" stroke-linejoin="round" stroke-linecap="butt" d="m568.7376 408.23752l142.5224 0.881897" fill-rule="evenodd"/><path fill="#000000" fill-opacity="0.0" d="m568.7376 455.6942l142.5224 0.881897" fill-rule="evenodd"/><path stroke="#ffffff" stroke-width="24.0" stroke-linejoin="round" stroke-linecap="butt" d="m568.7376 455.6942l142.5224 0.881897" fill-rule="evenodd"/><path fill="#000000" fill-opacity="0.0" d="m568.7376 265.86746l142.5224 0.88186646" fill-rule="evenodd"/><path stroke="#ffffff" stroke-width="24.0" stroke-linejoin="round" stroke-linecap="butt" d="m568.7376 265.86746l142.5224 0.88186646" fill-rule="evenodd"/><path fill="#000000" fill-opacity="0.0" d="m749.91473 360.78085l142.5224 0.88186646" fill-rule="evenodd"/><path stroke="#ffffff" stroke-width="24.0" stroke-linejoin="round" stroke-linecap="butt" d="m749.91473 360.78085l142.5224 0.88186646" fill-rule="evenodd"/><path fill="#000000" fill-opacity="0.0" d="m749.91473 408.23752l142.5224 0.881897" fill-rule="evenodd"/><path stroke="#ffffff" stroke-width="24.0" stroke-linejoin="round" stroke-linecap="butt" d="m749.91473 408.23752l142.5224 0.881897" fill-rule="evenodd"/><path fill="#000000" fill-opacity="0.0" d="m749.91473 455.6942l142.5224 0.881897" fill-rule="evenodd"/><path stroke="#ffffff" stroke-width="24.0" stroke-linejoin="round" stroke-linecap="butt" d="m749.91473 455.6942l142.5224 0.881897" fill-rule="evenodd"/><path fill="#000000" fill-opacity="0.0" d="m749.91473 265.86746l142.5224 0.88186646" fill-rule="evenodd"/><path stroke="#ffffff" stroke-width="24.0" stroke-linejoin="round" stroke-linecap="butt" d="m749.91473 265.86746l142.5224 0.88186646" fill-rule="evenodd"/><path fill="#000000" fill-opacity="0.0" d="m931.0906 360.78085l142.52234 0.88186646" fill-rule="evenodd"/><path stroke="#ffffff" stroke-width="24.0" stroke-linejoin="round" stroke-linecap="butt" d="m931.0906 360.78085l142.52234 0.88186646" fill-rule="evenodd"/><path fill="#000000" fill-opacity="0.0" d="m931.0906 408.23752l142.52234 0.881897" fill-rule="evenodd"/><path stroke="#ffffff" stroke-width="24.0" stroke-linejoin="round" stroke-linecap="butt" d="m931.0906 408.23752l142.52234 0.881897" fill-rule="evenodd"/><path fill="#000000" fill-opacity="0.0" d="m931.0906 455.6942l142.52234 0.881897" fill-rule="evenodd"/><path stroke="#ffffff" stroke-width="24.0" stroke-linejoin="round" stroke-linecap="butt" d="m931.0906 455.6942l142.52234 0.881897" fill-rule="evenodd"/><path fill="#000000" fill-opacity="0.0" d="m931.0906 265.86746l142.52234 0.88186646" fill-rule="evenodd"/><path stroke="#ffffff" stroke-width="24.0" stroke-linejoin="round" stroke-linecap="butt" d="m931.0906 265.86746l142.52234 0.88186646" fill-rule="evenodd"/></g></svg>