<svg version="1.1" viewBox="0.0 0.0 1280.0 720.0" fill="none" stroke="none" stroke-linecap="square" stroke-miterlimit="10" xmlns:xlink="http://www.w3.org/1999/xlink" xmlns="http://www.w3.org/2000/svg"><clipPath id="g2dfe87ab1c8_0_66.0"><path d="m0 0l1280.0 0l0 720.0l-1280.0 0l0 -720.0z" clip-rule="nonzero"/></clipPath><g clip-path="url(#g2dfe87ab1c8_0_66.0)"><path fill="#000000" fill-opacity="0.0" d="m0 0l1280.0 0l0 720.0l-1280.0 0z" fill-rule="evenodd"/><path fill="#000000" d="m68.56693 168.00192l0 0c0 -53.0204 42.98152 -96.00192 96.001915 -96.00192l950.8623 0c25.461304 0 49.87976 10.114456 67.88367 28.118309c18.003784 18.003853 28.118286 42.422325 28.118286 67.88361l0 383.9962c0 53.020386 -42.981567 96.00189 -96.00195 96.00189l-950.8623 0c-53.020393 0 -96.001915 -42.981506 -96.001915 -96.00189z" fill-rule="evenodd"/><path fill="#000000" fill-opacity="0.0" d="m196.43877 357.11548l179.8091 0.881897" fill-rule="evenodd"/><path stroke="#ffffff" stroke-width="24.0" stroke-linejoin="round" stroke-linecap="butt" d="m196.43877 357.11548l179.8091 0.881897" fill-rule="evenodd"/><path fill="#000000" fill-opacity="0.0" d="m196.43877 404.57217l179.8091 0.881897" fill-rule="evenodd"/><path stroke="#ffffff" stroke-width="24.0" stroke-linejoin="round" stroke-linecap="butt" d="m196.43877 404.57217l179.8091 0.881897" fill-rule="evenodd"/><path fill="#000000" fill-opacity="0.0" d="m196.43877 452.02887l179.8091 0.881897" fill-rule="evenodd"/><path stroke="#ffffff" stroke-width="24.0" stroke-linejoin="round" stroke-linecap="butt" d="m196.43877 452.02887l179.8091 0.881897" fill-rule="evenodd"/><path fill="#000000" fill-opacity="0.0" d="m196.43877 262.2021l179.8091 0.881897" fill-rule="evenodd"/><path stroke="#ffffff" stroke-width="24.0" stroke-linejoin="round" stroke-linecap="butt" d="m196.43877 262.2021l179.8091 0.881897" fill-rule="evenodd"/><path fill="#000000" fill-opacity="0.0" d="m425.01187 357.11548l179.80905 0.881897" fill-rule="evenodd"/><path stroke="#ffffff" stroke-width="24.0" stroke-linejoin="round" stroke-linecap="butt" d="m425.01187 357.11548l179.80905 0.881897" fill-rule="evenodd"/><path fill="#000000" fill-opacity="0.0" d="m425.01187 404.57217l179.80905 0.881897" fill-rule="evenodd"/><path stroke="#ffffff" stroke-width="24.0" stroke-linejoin="round" stroke-linecap="butt" d="m425.01187 404.57217l179.80905 0.881897" fill-rule="evenodd"/><path fill="#000000" fill-opacity="0.0" d="m425.01187 452.02887l179.80905 0.881897" fill-rule="evenodd"/><path stroke="#ffffff" stroke-width="24.0" stroke-linejoin="round" stroke-linecap="butt" d="m425.01187 452.02887l179.80905 0.881897" fill-rule="evenodd"/><path fill="#000000" fill-opacity="0.0" d="m425.01187 262.2021l179.80905 0.881897" fill-rule="evenodd"/><path stroke="#ffffff" stroke-width="24.0" stroke-linejoin="round" stroke-linecap="butt" d="m425.01187 262.2021l179.80905 0.881897" fill-rule="evenodd"/><path fill="#000000" fill-opacity="0.0" d="m653.5891 359.55905l179.80908 0.881897" fill-rule="evenodd"/><path stroke="#ffffff" stroke-width="24.0" stroke-linejoin="round" stroke-linecap="butt" d="m653.5891 359.55905l179.80908 0.881897" fill-rule="evenodd"/><path fill="#000000" fill-opacity="0.0" d="m653.5891 407.01575l179.80908 0.881897" fill-rule="evenodd"/><path stroke="#ffffff" stroke-width="24.0" stroke-linejoin="round" stroke-linecap="butt" d="m653.5891 407.01575l179.80908 0.881897" fill-rule="evenodd"/><path fill="#000000" fill-opacity="0.0" d="m653.5891 454.47244l179.80908 0.881897" fill-rule="evenodd"/><path stroke="#ffffff" stroke-width="24.0" stroke-linejoin="round" stroke-linecap="butt" d="m653.5891 454.47244l179.80908 0.881897" fill-rule="evenodd"/><path fill="#000000" fill-opacity="0.0" d="m653.5891 264.64566l179.80908 0.881897" fill-rule="evenodd"/><path stroke="#ffffff" stroke-width="24.0" stroke-linejoin="round" stroke-linecap="butt" d="m653.5891 264.64566l179.80908 0.881897" fill-rule="evenodd"/><path fill="#000000" fill-opacity="0.0" d="m896.71436 359.55905l179.80908 0.881897" fill-rule="evenodd"/><path stroke="#ffffff" stroke-width="24.0" stroke-linejoin="round" stroke-linecap="butt" d="m896.71436 359.55905l179.80908 0.881897" fill-rule="evenodd"/><path fill="#000000" fill-opacity="0.0" d="m896.71436 407.01575l179.80908 0.881897" fill-rule="evenodd"/><path stroke="#ffffff" stroke-width="24.0" stroke-linejoin="round" stroke-linecap="butt" d="m896.71436 407.01575l179.80908 0.881897" fill-rule="evenodd"/><path fill="#000000" fill-opacity="0.0" d="m896.71436 454.47244l179.80908 0.881897" fill-rule="evenodd"/><path stroke="#ffffff" stroke-width="24.0" stroke-linejoin="round" stroke-linecap="butt" d="m896.71436 454.47244l179.80908 0.881897" fill-rule="evenodd"/><path fill="#000000" fill-opacity="0.0" d="m896.71436 264.64566l179.80908 0.881897" fill-rule="evenodd"/><path stroke="#ffffff" stroke-width="24.0" stroke-linejoin="round" stroke-linecap="butt" d="m896.71436 264.64566l179.80908 0.881897" fill-rule="evenodd"/></g></svg>