<svg version="1.1" viewBox="0.0 0.0 1280.0 720.0" fill="none" stroke="none" stroke-linecap="square" stroke-miterlimit="10" xmlns:xlink="http://www.w3.org/1999/xlink" xmlns="http://www.w3.org/2000/svg"><clipPath id="g2e4640028ef_0_11.0"><path d="m0 0l1280.0 0l0 720.0l-1280.0 0l0 -720.0z" clip-rule="nonzero"/></clipPath><g clip-path="url(#g2e4640028ef_0_11.0)"><path fill="#000000" fill-opacity="0.0" d="m0 0l1280.0 0l0 720.0l-1280.0 0z" fill-rule="evenodd"/><path fill="#ffffff" d="m68.56693 309.38632l0 0c0 -13.97699 11.330589 -25.307587 25.307587 -25.307587l1092.251 0c6.712036 0 13.149048 2.6663208 17.895142 7.4124146c4.7460938 4.7460938 7.4124756 11.183197 7.4124756 17.895172l0 101.227356c0 13.97699 -11.330688 25.307587 -25.307617 25.307587l-1092.251 0c-13.976997 0 -25.307587 -11.330597 -25.307587 -25.307587z" fill-rule="evenodd"/><path fill="#000000" d="m283.48978 350.3518l0 0c0 -2.6643677 2.1598816 -4.8242493 4.8242493 -4.8242493l95.04443 0c1.2794495 0 2.5065308 0.50827026 3.411255 1.4129944c0.9047241 0.9047241 1.4129639 2.131775 1.4129639 3.411255l0 19.296387c0 2.6643677 -2.1598816 4.8242493 -4.8242188 4.8242493l-95.04443 0c-2.6643677 0 -4.8242493 -2.1598816 -4.8242493 -4.8242493z" fill-rule="evenodd"/><path fill="#000000" d="m585.4488 360.0l0 0c0 -30.127777 24.4234 -54.551178 54.55121 -54.551178l0 0c14.4678955 0 28.3432 5.747345 38.573486 15.977661c10.230347 10.230347 15.977722 24.105652 15.977722 38.573517l0 0c0 30.127777 -24.4234 54.551178 -54.55121 54.551178l0 0c-30.127808 0 -54.55121 -24.4234 -54.55121 -54.551178z" fill-rule="evenodd"/><path fill="#000000" d="m420.00684 350.3518l0 0c0 -2.6643677 2.1598816 -4.8242493 4.8242493 -4.8242493l95.0444 0c1.27948 0 2.5065308 0.50827026 3.411255 1.4129944c0.9047241 0.9047241 1.4130249 2.131775 1.4130249 3.411255l0 19.296387c0 2.6643677 -2.159912 4.8242493 -4.82428 4.8242493l-95.0444 0c-2.6643677 0 -4.8242493 -2.1598816 -4.8242493 -4.8242493z" fill-rule="evenodd"/><path fill="#000000" d="m755.2992 350.3518l0 0c0 -2.6643677 2.159912 -4.8242493 4.82428 -4.8242493l95.04437 0c1.27948 0 2.5065308 0.50827026 3.411255 1.4129944c0.9047241 0.9047241 1.4130249 2.131775 1.4130249 3.411255l0 19.296387c0 2.6643677 -2.159912 4.8242493 -4.82428 4.8242493l-95.04437 0c-2.6643677 0 -4.82428 -2.1598816 -4.82428 -4.8242493z" fill-rule="evenodd"/><path fill="#000000" d="m884.5423 350.3518l0 0c0 -2.6643677 2.159851 -4.8242493 4.8242188 -4.8242493l95.04443 0c1.27948 0 2.5065308 0.50827026 3.411255 1.4129944c0.9047241 0.9047241 1.4129639 2.131775 1.4129639 3.411255l0 19.296387c0 2.6643677 -2.159851 4.8242493 -4.8242188 4.8242493l-95.04443 0c-2.6643677 0 -4.8242188 -2.1598816 -4.8242188 -4.8242493z" fill-rule="evenodd"/></g></svg>