<svg version="1.1" viewBox="0.0 0.0 1280.0 720.0" fill="none" stroke="none" stroke-linecap="square" stroke-miterlimit="10" xmlns:xlink="http://www.w3.org/1999/xlink" xmlns="http://www.w3.org/2000/svg"><clipPath id="g2dfe87ab1c8_0_9.0"><path d="m0 0l1280.0 0l0 720.0l-1280.0 0l0 -720.0z" clip-rule="nonzero"/></clipPath><g clip-path="url(#g2dfe87ab1c8_0_9.0)"><path fill="#000000" fill-opacity="0.0" d="m0 0l1280.0 0l0 720.0l-1280.0 0z" fill-rule="evenodd"/><path fill="#000000" d="m68.56693 216.00143l0 0c0 -39.76529 32.236137 -72.001434 72.00144 -72.001434l998.8633 0c19.095947 0 37.40979 7.585846 50.91272 21.08873c13.502808 13.502899 21.088745 31.816742 21.088745 50.912704l0 287.99713c0 39.76529 -32.236206 72.001434 -72.001465 72.001434l-998.8633 0l0 0c-39.765305 0 -72.00144 -32.236145 -72.00144 -72.001434z" fill-rule="evenodd"/><path fill="#ffffff" d="m150.3924 271.2499l0 0c0 -15.180176 12.305939 -27.48613 27.486115 -27.48613l109.94116 0l0 0c7.2897644 0 14.280945 2.8958435 19.435608 8.050491c5.1546326 5.154663 8.050507 12.1458435 8.050507 19.435638l0 177.50018c0 15.180176 -12.305969 27.486115 -27.486115 27.486115l-109.94116 0c-15.180176 0 -27.486115 -12.305939 -27.486115 -27.486115z" fill-rule="evenodd"/><path fill="#ffffff" d="m353.96756 271.2499l0 0c0 -15.180176 12.305939 -27.48613 27.486115 -27.48613l109.94116 0l0 0c7.2897644 0 14.280945 2.8958435 19.435608 8.050491c5.154663 5.154663 8.050476 12.1458435 8.050476 19.435638l0 177.50018c0 15.180176 -12.305939 27.486115 -27.486084 27.486115l-109.94116 0c-15.180176 0 -27.486115 -12.305939 -27.486115 -27.486115z" fill-rule="evenodd"/><path fill="#ffffff" d="m557.5427 271.2499l0 0c0 -15.180176 12.305969 -27.48613 27.486084 -27.48613l109.94116 0l0 0c7.289795 0 14.281006 2.8958435 19.435608 8.050491c5.154663 5.154663 8.050537 12.1458435 8.050537 19.435638l0 177.50018c0 15.180176 -12.305969 27.486115 -27.486145 27.486115l-109.94116 0c-15.180115 0 -27.486084 -12.305939 -27.486084 -27.486115z" fill-rule="evenodd"/><path fill="#ffffff" d="m761.11786 271.2499l0 0c0 -15.180176 12.305969 -27.48613 27.486145 -27.48613l109.94116 0l0 0c7.289734 0 14.280945 2.8958435 19.435608 8.050491c5.154663 5.154663 8.050476 12.1458435 8.050476 19.435638l0 177.50018c0 15.180176 -12.305908 27.486115 -27.486084 27.486115l-109.94116 0c-15.180176 0 -27.486145 -12.305939 -27.486145 -27.486115z" fill-rule="evenodd"/></g></svg>